<svg preserveAspectRatio="xMidYMid meet" width="778" height="381" viewBox="0 0 777.833 381.017" fill="none" xmlns="http://www.w3.org/2000/svg" aria-hidden="true">
<g id="Soundwave" opacity="0.32" fill="#002928">
<path d="M90.7425 364.08C95.7286 369.092 94.0237 374.265 91.9327 377.381C89.8418 380.497 82.8613 383.035 78.4864 378.73C-26.1568 275.055 -26.1568 105.808 78.4542 2.13236C81.9606 -1.3374 87.6543 0.044079 90.3886 1.9396C93.4125 4.06001 96.3398 11.128 91.8362 15.5616C-4.60407 111.012 -5.95514 267.28 90.7425 364.08Z"/>
<path d="M700.522 377.574C695.633 382.489 690.067 380.594 687.462 378.923C684.277 376.835 681.639 369.574 685.95 365.301C783.323 269.047 783.323 111.88 685.95 15.5616C682.476 12.124 683.698 6.34103 685.95 3.6102C688.202 0.879364 694.828 -2.07636 699.268 2.29297C803.299 105.037 804.329 273.256 700.49 377.606L700.522 377.574Z"/>
<path d="M700.328 228.76C687.879 304.613 629.139 377.51 622.609 346.09C621.323 339.953 626.148 337.929 629.493 334.138C703.03 250.671 702.033 138.964 629.686 53.1837C626.984 49.971 622.513 49.4248 622.352 44.2202C622.255 40.5255 624.636 35.6422 629.461 34.3892C632.517 33.586 637.696 33.586 641.749 38.116C688.039 89.9054 711.844 158.69 700.328 228.76Z"/>
<path d="M98.4297 150.144C72.5664 265.449 154.821 338.828 155.271 343.133C155.689 347.085 152.601 351.744 148.451 352.868C145.267 353.735 140.023 353.703 136.163 349.238C54.3592 255.201 54.0376 130.771 136.034 38.0191C139.348 34.2923 143.53 34.0353 146.039 34.0674C150.607 34.1316 154.595 38.0191 155.367 41.3924C157.008 48.589 113.645 82.4192 98.4297 150.176V150.144Z"/>
<path d="M210.921 296.002C215.875 301.657 219.381 303.97 217.001 309.849C215.103 314.508 206.16 318.748 201.463 313.833C135.615 244.47 135.679 139.702 201.495 70.4033C204.937 66.7729 211.435 68.7005 214.17 70.8209C216.582 72.6843 220.057 78.3709 216.518 82.0656C158.776 142.08 154.819 232.229 210.921 296.034V296.002Z"/>
<path d="M577.413 312.869C572.877 317.752 566.605 315.471 563.677 313.351C561.2 311.552 557.823 305.705 561.265 302.138C622.095 239.683 621.902 144.585 561.2 82.0655C557.758 78.5315 561.2 72.6521 563.645 70.853C566.283 68.8932 572.974 66.8371 576.352 70.3711C641.428 139.092 642.618 242.446 577.381 312.869H577.413Z"/>
<path d="M393.959 288.196C393.959 296.517 388.684 299.891 384.148 299.987C379.934 300.051 374.948 296.485 374.948 289.995V90.9015C374.916 84.3797 379.902 80.942 384.116 80.9099C388.33 80.8778 393.766 84.476 393.766 90.9015L393.927 288.196H393.959Z"/>
<path d="M426.932 262.269C426.932 269.561 422.396 272.806 419.018 273.642C413.453 275.023 407.76 271.425 407.76 264.325V116.635C407.76 110.466 412.199 107.414 416.252 107.061C419.308 106.804 426.449 109.117 426.449 114.514L426.932 262.269Z"/>
<path d="M360.986 262.59C360.986 270.75 356 273.835 351.85 273.995C347.7 274.156 342.103 270.558 342.103 264.357V116.571C342.103 110.338 347.54 106.772 351.85 106.836C355.871 106.9 360.825 110.274 360.825 116.603L360.954 262.622L360.986 262.59Z"/>
<path d="M462.766 233.804C462.766 241.675 459.453 245.755 454.885 246.494C448.515 247.554 443.529 242.864 443.497 235.442V145.485C443.497 139.221 447.068 135.044 451.571 134.402C458.134 133.47 462.605 137.936 462.605 145.485L462.766 233.804Z"/>
<path d="M325.376 233.804C325.409 241.675 321.195 245.948 316.562 246.591C312.284 247.201 306.397 243.699 306.397 237.627V143.333C306.397 138.064 310.515 135.301 313.313 134.498C317.849 133.181 324.765 136.394 324.83 142.562L325.376 233.804Z"/>
<path d="M291.342 213.788C291.406 220.631 287.353 224.358 283.847 225.289C278.314 226.735 272.427 223.394 272.427 216.262V164.729C272.459 158.625 276.77 155.476 281.145 155.316C284.747 155.187 290.699 157.79 290.763 163.348L291.31 213.788H291.342Z"/>
<path d="M496.478 214.656C496.478 222.302 491.202 225.675 487.021 225.707C482.839 225.74 477.788 222.27 477.788 216.198V164.665C477.82 158.433 482.774 155.284 487.021 155.284C491.267 155.284 496.253 158.465 496.285 164.665L496.478 214.624V214.656Z"/>
<path d="M256.376 207.877C256.504 214.881 252.001 218.318 248.559 219.089C242.929 220.342 237.429 216.744 237.429 209.772V171.155C237.396 165.147 241.353 161.935 245.825 161.646C249.267 161.421 255.668 163.637 255.732 169.067L256.376 207.909V207.877Z"/>
<path d="M531.447 208.262C531.479 216.069 526.493 219.281 522.375 219.346C517.711 219.442 512.725 216.004 512.725 209.804V171.026C512.725 164.986 517.807 161.227 522.343 161.291C526.493 161.356 531.221 164.922 531.254 171.09L531.447 208.262Z"/>
</g>
</svg>
